<svg width="29" height="45" viewBox="0 0 29 45" fill="none" xmlns="http://www.w3.org/2000/svg">
<path d="M28.0245 20.2882L26.019 19.62L23.1615 15.3338C23.0513 15.1688 22.8795 15.0533 22.6846 15.015L19.0336 14.2845L17.6228 13.5788C17.6018 13.5682 17.5793 13.5698 17.5576 13.5615C17.2989 13.1873 16.9501 12.8617 16.5241 12.6068C16.9028 12.2325 17.1586 11.7675 17.2441 11.25H20.7879L23.5876 13.35C23.7196 13.4489 23.8778 13.5 24.0376 13.5C24.1314 13.5 24.2259 13.4828 24.3166 13.4467L28.0666 11.9467C28.4506 11.7922 28.6381 11.3564 28.4844 10.9709C28.3299 10.587 27.8949 10.401 27.5086 10.5532L24.1501 11.8972L21.4875 9.9C21.3578 9.80253 21.1995 9.74997 21.0375 9.74997H16.9867C16.881 9.55644 16.7467 9.37872 16.5922 9.21524C17.9046 8.55896 18.7874 7.36497 18.7874 6.00003C18.7874 5.96479 18.7821 5.93024 18.7814 5.89579C20.0744 5.56207 21.0374 4.39576 21.0374 3.00006C21.0375 1.34552 19.692 0 18.0375 0C17.6235 0 17.2875 0.336006 17.2875 0.749971C17.2875 1.16394 17.6235 1.49994 18.0375 1.49994C18.8647 1.49994 19.5375 2.17266 19.5375 2.99997C19.5375 3.70793 19.044 4.29899 18.3833 4.4557C17.6752 3.15677 16.1077 2.25 14.2875 2.25C12.4673 2.25 10.8997 3.15677 10.1917 4.45579C9.53093 4.29908 9.03743 3.70802 9.03743 3.00006C9.03743 2.17283 9.71014 1.50003 10.5375 1.50003C10.9514 1.50003 11.2874 1.16402 11.2874 0.750059C11.2874 0.336094 10.9515 0 10.5375 0C8.883 0 7.53749 1.34552 7.53749 2.99997C7.53749 4.39567 8.5005 5.56198 9.79346 5.8957C9.79267 5.93024 9.78749 5.9647 9.78749 5.99994C9.78749 7.36497 10.6703 8.55896 11.9827 9.21516C11.8282 9.37863 11.694 9.55644 11.5882 9.74988H7.53749C7.3755 9.74988 7.21721 9.80235 7.08749 9.89991L4.42501 11.8971L1.06654 10.5531C0.679556 10.3994 0.245288 10.5869 0.0907765 10.9709C-0.0629442 11.3563 0.124526 11.7921 0.508521 11.9466L4.25855 13.4467C4.34934 13.4827 4.44382 13.4999 4.53751 13.4999C4.6973 13.4999 4.8555 13.4489 4.98751 13.3499L7.78727 11.25H11.331C11.4165 11.7675 11.6723 12.2325 12.051 12.6068C11.625 12.8617 11.2763 13.1873 11.0175 13.5615C10.9958 13.5698 10.9733 13.5683 10.9523 13.5788L9.54157 14.2845L5.89059 15.015C5.69556 15.0532 5.52382 15.1687 5.41361 15.3338L2.55611 19.62L0.55062 20.2882C0.157661 20.4195 -0.0553854 20.844 0.0758353 21.237C0.180865 21.5512 0.473365 21.75 0.787574 21.75C0.86562 21.75 0.945864 21.738 1.02461 21.7118L3.27461 20.9618C3.43291 20.9086 3.56861 20.805 3.6616 20.6663L6.48913 16.4243L9.93461 15.7351C9.99983 15.7223 10.0636 15.7005 10.1229 15.6713L10.5924 15.4358C10.6637 15.8198 10.8242 16.1776 11.0596 16.5001H10.5376C8.88309 16.5001 7.53766 17.8456 7.53766 19.5C7.53766 20.1218 7.72812 20.7 8.05367 21.1793C6.88367 21.5895 6.03763 22.692 6.03763 24C6.03763 24.6218 6.22809 25.2 6.55364 25.6793C5.38364 26.0895 4.5376 27.192 4.5376 28.5C4.5376 29.4 4.9441 30.1996 5.5741 30.75C4.9441 31.3005 4.5376 32.1 4.5376 33C4.5376 34.308 5.38364 35.4105 6.55364 35.8208C6.22818 36.3001 6.03763 36.8783 6.03763 37.5C6.03763 38.808 6.88367 39.9105 8.05367 40.3208C7.72821 40.8001 7.53766 41.3783 7.53766 42C7.53766 43.6546 8.88318 45 10.5376 45H18.0376C19.6921 45 21.0376 43.6545 21.0376 42C21.0376 41.3783 20.8471 40.8001 20.5216 40.3208C21.6916 39.9105 22.5376 38.808 22.5376 37.5C22.5376 36.8783 22.3471 36.3001 22.0216 35.8208C23.1916 35.4105 24.0376 34.308 24.0376 33C24.0376 32.1 23.6311 31.3006 23.0011 30.75C23.6311 30.1996 24.0376 29.4 24.0376 28.5C24.0376 27.192 23.1916 26.0895 22.0216 25.6793C22.3471 25.2 22.5376 24.6218 22.5376 24C22.5376 22.692 21.6916 21.5895 20.5216 21.1793C20.847 20.7 21.0376 20.1218 21.0376 19.5C21.0376 17.8455 19.6921 16.5001 18.0376 16.5001H17.5156C17.7511 16.1776 17.9117 15.8198 17.9828 15.4358L18.4524 15.6713C18.5116 15.7006 18.5753 15.7223 18.6406 15.7351L22.0861 16.4243L24.9136 20.6663C25.0066 20.8051 25.1424 20.9086 25.3006 20.9618L27.5506 21.7118C27.6294 21.7381 27.7096 21.75 27.7877 21.75C28.102 21.75 28.3945 21.5513 28.4994 21.237C28.6304 20.844 28.4175 20.4195 28.0245 20.2882ZM18.0375 43.5H10.5375C9.71032 43.5 9.03751 42.8273 9.03751 41.9999C9.03751 41.1726 9.71023 40.4999 10.5375 40.4999H18.0375C18.8647 40.4999 19.5375 41.1726 19.5375 41.9999C19.5375 42.8273 18.8647 43.5 18.0375 43.5ZM22.5375 33C22.5375 33.8273 21.8648 34.5001 21.0375 34.5001H19.5375H9.03751H7.53749C6.71026 34.5001 6.03746 33.8273 6.03746 33C6.03746 32.1728 6.71017 31.5 7.53749 31.5H21.0375C21.8647 31.5 22.5375 32.1727 22.5375 33ZM18.0375 22.5H19.5375C20.3648 22.5 21.0376 23.1727 21.0376 24C21.0376 24.8273 20.3649 25.5001 19.5375 25.5001H9.03751C8.21029 25.5001 7.53749 24.8273 7.53749 24C7.53749 23.1728 8.2102 22.5 9.03751 22.5H10.5375H18.0375Z" fill="#5D8BFF"/>
</svg>
