<svg width="45" height="44" viewBox="0 0 45 44" fill="none" xmlns="http://www.w3.org/2000/svg">
<g clip-path="url(#clip0_1_232)">
<path d="M44.8148 14.7492C44.7036 14.3047 44.2525 14.036 43.8088 14.1454L37.3559 15.7593L33.4356 14.9756C32.7548 13.9796 31.9321 13.1511 31.0447 12.4627H35.1391L40.324 9.00607C40.7047 8.75232 40.8075 8.23643 40.5537 7.85578C40.2991 7.47424 39.7849 7.37059 39.4034 7.62608L34.6364 10.8041H28.3045C27.3857 10.372 26.4841 10.0477 25.6747 9.80718C25.9617 9.60321 26.2188 9.37098 26.4435 9.11802C26.4932 9.12712 26.5413 9.1454 26.5935 9.1454C26.6326 9.1454 26.6715 9.14208 26.7122 9.1363L32.8682 8.25725L37.2213 2.16337C37.4876 1.79014 37.4013 1.27268 37.0281 1.00643C36.6558 0.73939 36.1374 0.825634 35.8712 1.19965L31.931 6.71546L27.3448 7.37059C27.3929 7.13836 27.4236 6.90115 27.4236 6.65738C27.4236 6.61837 27.4178 6.58023 27.417 6.54131C28.8467 6.17307 29.9116 4.88353 29.9116 3.34007C29.9116 1.51059 28.4237 0.0227661 26.5942 0.0227661C26.1364 0.0227661 25.7649 0.393455 25.7649 0.852049C25.7649 1.30986 26.1364 1.68142 26.5942 1.68142C27.509 1.68142 28.2529 2.42533 28.2529 3.34007C28.2529 4.12212 27.7072 4.77559 26.9766 4.94983C26.1936 3.51343 24.4604 2.51079 22.4477 2.51079C20.4349 2.51079 18.7016 3.51343 17.9188 4.94983C17.1881 4.77568 16.6424 4.12212 16.6424 3.34007C16.6424 2.42533 17.3863 1.68142 18.3011 1.68142C18.7589 1.68142 19.1304 1.30986 19.1304 0.852049C19.1304 0.393455 18.7589 0.0227661 18.3011 0.0227661C16.4716 0.0227661 14.9838 1.51059 14.9838 3.34007C14.9838 4.88344 16.0486 6.17307 17.4792 6.54131C17.4776 6.58032 17.4718 6.61846 17.4718 6.65738C17.4718 6.90124 17.5025 7.13836 17.5506 7.37059L12.9644 6.71546L9.02423 1.19965C8.75719 0.825634 8.23886 0.73939 7.86729 1.00643C7.49407 1.27268 7.40783 1.79014 7.67408 2.16337L12.0272 8.25725L18.1833 9.1363C18.2239 9.14208 18.2628 9.1454 18.3019 9.1454C18.3541 9.1454 18.4022 9.12712 18.452 9.11802C18.6767 9.37098 18.9338 9.60321 19.2207 9.80718C18.4113 10.0477 17.5098 10.372 16.5909 10.8041H10.259L5.49202 7.62608C5.11048 7.37068 4.59635 7.47433 4.34173 7.85578C4.08798 8.23643 4.19076 8.75223 4.57142 9.00607L9.75634 12.4627H13.8507C12.9633 13.1511 12.1406 13.9796 11.4598 14.9756L7.53955 15.7593L1.08661 14.1454C0.64455 14.0359 0.191816 14.3046 0.0806445 14.7492C-0.0305272 15.1937 0.239836 15.6441 0.68356 15.7552L7.31817 17.4138C7.38447 17.4304 7.45165 17.4387 7.5197 17.4387C7.57358 17.4387 7.62833 17.4329 7.68221 17.422L10.4422 16.8697C10.2895 17.2462 10.1502 17.6351 10.0375 18.0481L9.46857 22.8018L9.47355 22.8102L8.61856 30.0286C8.27105 32.9843 8.90799 35.8895 10.4132 38.2083C12.1216 40.8397 15.5957 43.977 22.4476 43.977C29.2995 43.977 32.7735 40.8397 34.4819 38.2083C35.9872 35.8895 36.6241 32.9843 36.2766 30.0286L34.8817 18.1709L34.8576 18.0482C34.7449 17.6352 34.6055 17.2462 34.4529 16.8698L37.2128 17.4221C37.2667 17.4329 37.3215 17.4388 37.3754 17.4388C37.4433 17.4388 37.5105 17.4304 37.5769 17.4139L44.2115 15.7553C44.6555 15.6441 44.9258 15.1937 44.8148 14.7492ZM22.4478 28.22C17.6137 28.22 13.2241 25.9691 11.179 22.4645L11.6533 18.429C13.4372 12.1078 21.5488 10.922 22.4486 10.8091C23.3509 10.9203 31.4534 12.0921 33.2422 18.429L33.7166 22.4645C31.6716 25.9691 27.2819 28.22 22.4478 28.22Z" fill="#5D8BFF"/>
</g>
<defs>
<clipPath id="clip0_1_232">
<rect width="44.8397" height="44" fill="white"/>
</clipPath>
</defs>
</svg>
