<svg width="41" height="45" viewBox="0 0 41 45" fill="none" xmlns="http://www.w3.org/2000/svg">
<g clip-path="url(#clip0_1_187)">
<path d="M40.4012 18.378C40.1964 18.0188 39.7374 17.8943 39.3782 18.0991L34.372 20.9595L31.5002 20.385V18H29.2502V16.5C29.2502 16.4152 29.2396 16.3335 29.2374 16.2502L34.0456 14.1891C34.3216 14.0714 34.5001 13.7999 34.5001 13.4999V5.24997H39.0001C39.4141 5.24997 39.7501 4.91396 39.7501 4.5C39.7501 4.08604 39.4141 3.75003 39.0001 3.75003H33.7502C33.3362 3.75003 33.0002 4.08604 33.0002 4.5V13.0058L29.0672 14.691C28.4859 11.8537 26.5607 9.50625 23.9926 8.32579C23.9933 8.30101 24.0001 8.27402 24.0001 8.25003C24.0001 7.41375 23.7151 6.64875 23.2508 6.02402C23.2816 5.6918 23.7151 1.50003 26.2501 1.50003C26.6641 1.50003 27.0001 1.16402 27.0001 0.750059C27.0001 0.336094 26.6641 0 26.2502 0C23.2562 0 22.2347 3.19271 21.9024 4.90052C21.4021 4.65223 20.8456 4.5 20.2502 4.5C19.6547 4.5 19.0982 4.65223 18.5979 4.90052C18.2657 3.19271 17.2441 0 14.2501 0C13.8362 0 13.5002 0.336006 13.5002 0.749971C13.5002 1.16394 13.8362 1.49994 14.2501 1.49994C16.7724 1.49994 17.2178 5.68723 17.2494 6.02394C16.7844 6.64866 16.5001 7.41366 16.5001 8.24994C16.5001 8.27394 16.5069 8.30092 16.5076 8.3257C13.9396 9.50625 12.0144 11.8537 11.4331 14.6909L7.50003 13.0057V4.5C7.50003 4.08604 7.16403 3.75003 6.75006 3.75003H1.50018C1.08622 3.75003 0.75021 4.08604 0.75021 4.5C0.75021 4.91396 1.08622 5.24997 1.50018 5.24997H6.00018V13.5C6.00018 13.8 6.17869 14.0715 6.45466 14.1892L11.2629 16.2503C11.2606 16.3335 11.2502 16.4152 11.2502 16.5001V18H9.00015V20.385L6.12841 20.9595L1.12216 18.099C0.763657 17.8942 0.304692 18.0187 0.099204 18.3779C-0.106284 18.7371 0.0181688 19.1954 0.378169 19.4009L5.62814 22.4009C5.74213 22.4661 5.87037 22.4998 6.00009 22.4998C6.04887 22.4998 6.09836 22.4953 6.14713 22.4848L9.00015 21.915V26.649L4.77015 30.174C4.51061 30.39 4.42738 30.753 4.56765 31.0605L8.15869 38.9609L5.34917 43.878C5.14369 44.2372 5.26814 44.6955 5.62814 44.9009C5.74512 44.9684 5.87336 44.9999 5.99939 44.9999C6.25963 44.9999 6.51311 44.8642 6.6511 44.6219L9.65107 39.3719C9.77104 39.1627 9.78229 38.9092 9.68254 38.6895L6.16955 30.9599L9.00015 28.6013V32.2501C9.00015 35.5703 10.4544 38.5501 12.7502 40.6118V19.5H14.2502V41.7495C15.1697 42.3323 16.177 42.7837 17.2502 43.0815V19.5H18.7502V43.3883C19.2422 43.4543 19.7402 43.5 20.2502 43.5C20.7603 43.5 21.2583 43.4542 21.7503 43.3883V19.5H23.2503V43.0815C24.3235 42.7837 25.3308 42.3323 26.2503 41.7495V19.5H27.7503V40.6118C30.0459 38.55 31.5002 35.5702 31.5002 32.25V28.6012L34.3307 30.9599L30.8177 38.6895C30.7179 38.9092 30.7292 39.1627 30.8491 39.3719L33.8491 44.6219C33.9871 44.8641 34.2406 44.9999 34.5008 44.9999C34.6269 44.9999 34.7551 44.9684 34.8721 44.9009C35.2321 44.6955 35.3566 44.2372 35.151 43.878L32.3415 38.9609L35.9326 31.0605C36.0728 30.7529 35.9896 30.3899 35.7301 30.174L31.5002 26.649V21.915L34.3532 22.485C34.402 22.4954 34.4514 22.5 34.5002 22.5C34.6299 22.5 34.7582 22.4662 34.8722 22.401L40.1221 19.4011C40.4821 19.1955 40.6067 18.7372 40.4012 18.378ZM27.7501 18H12.7502V16.5C12.7502 13.41 14.6289 10.7527 17.3027 9.60522L17.5232 9.52049C17.548 9.51152 17.5727 9.50247 17.5974 9.49351C17.8029 9.41546 18.0107 9.34647 18.22 9.28723C18.2357 9.28195 18.2529 9.27896 18.2687 9.27448C18.472 9.21823 18.6752 9.17024 18.8807 9.13122C18.922 9.12375 18.964 9.11927 19.006 9.11171C19.1905 9.08024 19.3757 9.05247 19.561 9.03524C19.642 9.02777 19.7245 9.02698 19.8055 9.0225C20.1018 9.00448 20.3988 9.00448 20.6951 9.0225C20.7761 9.02698 20.8585 9.02777 20.9396 9.03524C21.1248 9.05247 21.31 9.08024 21.4946 9.11171C21.5366 9.11918 21.5786 9.12375 21.6198 9.13122C21.8253 9.17024 22.0286 9.21823 22.2318 9.27448C22.2476 9.27896 22.2648 9.28195 22.2806 9.28723C22.4899 9.34647 22.6976 9.41546 22.9031 9.49351L22.9774 9.52049L23.1979 9.60522C25.8716 10.7527 27.7504 13.41 27.7504 16.5V18H27.7501Z" fill="#5D8BFF"/>
</g>
<defs>
<clipPath id="clip0_1_187">
<rect width="40.5563" height="45" fill="white"/>
</clipPath>
</defs>
</svg>
