<svg width="37" height="46" viewBox="0 0 37 46" fill="none" xmlns="http://www.w3.org/2000/svg">
<g clip-path="url(#clip0_1_248)">
<path d="M36.2132 44.0468L31.1703 41.1651L28.9605 31.5867C28.9147 31.3924 28.7952 31.2233 28.6268 31.1151L21.1661 26.3678L27.5398 25.6594C27.7637 25.635 27.9648 25.5116 28.0898 25.325L30.9106 21.0934H35.8354C36.2567 21.0934 36.5972 20.7521 36.5972 20.3316C36.5972 19.9111 36.2567 19.5698 35.8354 19.5698H30.503C30.2486 19.5698 30.0101 19.697 29.8693 19.9089L27.0195 24.1846L20.8957 24.8648L21.055 23.9903L28.6543 18.6702C28.8585 18.5277 28.9795 18.2946 28.9795 18.0463V12.3842L32.4189 10.3205C32.7792 10.1034 32.8965 9.63573 32.6794 9.27538C32.463 8.91434 31.9961 8.79698 31.6343 9.01406L27.8254 11.2994C27.5962 11.4365 27.456 11.6848 27.456 11.9522V17.6502L21.4426 21.8589L22.1107 18.1826C22.1145 18.1621 22.1069 18.1415 22.1084 18.1209C22.1115 18.095 22.1237 18.0729 22.1237 18.0463V16.5228C22.1237 15.2842 21.5204 14.1925 20.6017 13.4963C20.636 13.1253 21.0838 8.90512 23.6472 8.90512C27.6061 8.90512 28.8409 2.1795 28.9689 1.41317C29.0382 0.998053 28.7579 0.605671 28.3427 0.536412C27.9291 0.467065 27.5345 0.747438 27.4667 1.16256C27.197 2.77597 25.918 7.38159 23.6472 7.38159C20.3107 7.38159 19.3875 11.281 19.1528 12.8138C18.8824 12.7528 18.6036 12.714 18.3149 12.714C18.0262 12.714 17.7474 12.7528 17.4769 12.8138C17.2423 11.2811 16.319 7.38159 12.9825 7.38159C10.7056 7.38159 9.45327 2.89176 9.16306 1.16177C9.09301 0.746648 8.70063 0.467767 8.2863 0.536324C7.87189 0.605671 7.5916 0.997966 7.66086 1.41308C7.78885 2.17941 9.02367 8.90504 12.9825 8.90504C15.5329 8.90504 15.9923 13.1206 16.0281 13.4962C15.1094 14.1925 14.506 15.284 14.506 16.5227V18.0462C14.506 18.0729 14.5182 18.0949 14.5213 18.1208C14.5228 18.1414 14.5153 18.162 14.519 18.1825L15.1871 21.8588L9.17377 17.6501V11.9521C9.17377 11.6847 9.03288 11.4364 8.8043 11.2993L4.99547 9.01397C4.63364 8.79689 4.16664 8.91417 3.94956 9.2753C3.73318 9.63564 3.85054 10.1033 4.21088 10.3204L7.65024 12.3841V18.0462C7.65024 18.2946 7.77138 18.5276 7.97556 18.6701L15.5749 23.9902L15.7333 24.8647L9.61031 24.1845L6.76058 19.9088C6.6189 19.697 6.38119 19.5698 6.1268 19.5698H0.794261C0.372999 19.5698 0.0324955 19.911 0.0324955 20.3315C0.0324955 20.752 0.372999 21.0933 0.794261 21.0933H5.71905L8.5399 25.3249C8.66481 25.5115 8.86592 25.6349 9.08994 25.6593L15.4636 26.3677L8.00295 31.115C7.83458 31.2232 7.71502 31.3923 7.66929 31.5866L5.4594 41.165L0.416539 44.0468C0.0509296 44.2555 -0.0763533 44.7209 0.133181 45.0858C0.273367 45.3319 0.53004 45.4698 0.795139 45.4698C0.923124 45.4698 1.05339 45.4377 1.17225 45.3692L6.50461 42.3221C6.68895 42.217 6.8215 42.0395 6.86951 41.8323L9.08397 32.2333L12.3535 30.1529C11.8172 31.0663 11.4614 32.1244 11.4622 33.3462C11.5018 33.8102 12.4922 44.7079 18.315 44.7079C24.1372 44.7079 25.1283 33.8102 25.1709 33.2815C25.1709 32.0947 24.8251 31.064 24.3025 30.1697L27.5461 32.2333L29.7606 41.8323C29.8086 42.0395 29.9411 42.217 30.1255 42.3221L35.4578 45.3692C35.5767 45.4377 35.707 45.4698 35.835 45.4698C36.1001 45.4698 36.356 45.3319 36.4969 45.0858C36.7053 44.721 36.5781 44.2556 36.2132 44.0468Z" fill="#5D8BFF"/>
</g>
<defs>
<clipPath id="clip0_1_248">
<rect width="36.6292" height="45" fill="white" transform="translate(0 0.469727)"/>
</clipPath>
</defs>
</svg>
