<svg width="33" height="45" viewBox="0 0 33 45" fill="none" xmlns="http://www.w3.org/2000/svg">
<path d="M27.7389 15.9721C27.9935 15.8767 28.1781 15.6525 28.2231 15.3834L28.8789 11.4452H31.2835C31.7052 11.4452 32.0461 11.1036 32.0461 10.6826C32.0461 10.2617 31.7052 9.92002 31.2835 9.92002H28.233C27.8601 9.92002 27.5421 10.1892 27.4811 10.5568L26.7909 14.6985L22.0734 16.467C21.9422 15.6357 21.5663 14.4804 20.571 13.3952L20.2057 10.4759C20.0502 9.22912 19.3379 8.1744 18.3427 7.53227C18.5013 6.51876 19.4142 1.52593 21.9575 1.52593C21.9987 1.52593 22.0414 1.52742 22.0833 1.52971C22.5157 1.55484 22.8658 1.2376 22.8932 0.817448C22.9199 0.397212 22.6011 0.0349758 22.1817 0.00755758C22.1001 0.00228485 22.0208 0 21.9423 0C18.4031 0 17.2019 5.16209 16.8916 6.94357C16.6414 6.8955 16.3836 6.86957 16.1206 6.86957H15.9421C15.679 6.86957 15.4212 6.8955 15.1711 6.94357C14.8615 5.16209 13.6603 0 10.1203 0C10.0425 0 9.96248 0.00228485 9.88163 0.00764545C9.4614 0.0350636 9.14266 0.3973 9.16938 0.817536C9.19609 1.23777 9.53768 1.55343 9.98006 1.52979C10.0213 1.52672 10.0632 1.52601 10.1051 1.52601C12.6416 1.52601 13.5605 6.51885 13.7199 7.53235C12.7255 8.17448 12.0132 9.22912 11.8576 10.476L11.4923 13.3953C10.4963 14.4805 10.1211 15.6358 9.9892 16.4671L5.27248 14.6986L4.58228 10.5569C4.52129 10.1893 4.20326 9.92011 3.8296 9.92011H0.779061C0.358122 9.92011 0.016449 10.2618 0.016449 10.6827C0.016449 11.1037 0.358122 11.4453 0.779061 11.4453H3.1843L3.84014 15.3834C3.88514 15.6526 4.06968 15.8769 4.32436 15.9721L9.93032 18.0746V22.8844H6.11726C5.93878 22.8844 5.76566 22.947 5.62918 23.0613L1.05351 26.8744C0.730201 27.1436 0.68591 27.6248 0.955873 27.9482C1.10685 28.1289 1.32347 28.2227 1.54229 28.2227C1.71462 28.2227 1.88695 28.1647 2.03037 28.0458L6.39399 24.4097H9.93023V27.1024L5.62909 30.6874C5.43233 30.8514 5.33092 31.103 5.35913 31.357L6.09432 37.9742L3.16743 43.0966C2.95846 43.4619 3.08579 43.9279 3.4511 44.1369C3.57009 44.2047 3.7005 44.2375 3.82863 44.2375C4.09403 44.2375 4.35098 44.0994 4.49132 43.8531L7.54177 38.5148C7.62262 38.3745 7.65619 38.2129 7.63782 38.0527L6.921 31.5964L9.93331 29.0859C9.96688 38.231 14.4632 44.4303 14.6554 44.6904C14.7987 44.8849 15.0268 45 15.2685 45H16.0311H16.7937C17.0363 45 17.2635 44.8849 17.4077 44.6904C17.5999 44.4304 22.0954 38.2311 22.1289 29.0859L25.142 31.5964L24.4244 38.0527C24.4069 38.2128 24.4404 38.3745 24.5205 38.5148L27.5709 43.8531C27.712 44.0994 27.969 44.2375 28.2336 44.2375C28.3618 44.2375 28.4922 44.2047 28.6112 44.1369C28.9772 43.9279 29.1046 43.4619 28.8948 43.0966L25.9687 37.9742L26.7031 31.357C26.7321 31.103 26.6307 30.8514 26.434 30.6874L22.1321 27.1024V24.4097H25.6691L30.0327 28.0458C30.1753 28.1648 30.3484 28.2227 30.52 28.2227C30.7389 28.2227 30.9562 28.1289 31.1072 27.9482C31.3763 27.6249 31.3329 27.1436 31.0095 26.8744L26.4339 23.0613C26.2966 22.9469 26.1243 22.8844 25.945 22.8844H22.1319V18.0746L27.7389 15.9721ZM16.0313 12.9705H13.0823L13.3705 10.6651C13.5329 9.37087 14.638 8.3948 15.942 8.3948H16.1205C17.4245 8.3948 18.5303 9.37095 18.6928 10.6651L18.9803 12.9705H16.0313Z" fill="#5D8BFF"/>
</svg>
