<svg width="43" height="46" viewBox="0 0 43 46" fill="none" xmlns="http://www.w3.org/2000/svg">
<g clip-path="url(#clip0_1_293)">
<path d="M17.2874 7.96935C15.6329 7.96935 14.2874 6.62382 14.2874 4.96935C14.2874 3.31489 15.6329 1.96936 17.2874 1.96936C17.7022 1.96936 18.0374 2.30537 18.0374 2.71934C18.0374 3.13331 17.7022 3.46931 17.2874 3.46931C16.4602 3.46931 15.7874 4.14203 15.7874 4.96935C15.7874 5.79668 16.4601 6.4694 17.2874 6.4694C17.7022 6.4694 18.0374 6.8054 18.0374 7.21937C18.0374 7.63334 17.7022 7.96935 17.2874 7.96935Z" fill="#5D8BFF"/>
<path d="M24.7875 7.96935C24.3728 7.96935 24.0375 7.63334 24.0375 7.21937C24.0375 6.8054 24.3728 6.4694 24.7875 6.4694C25.6147 6.4694 26.2876 5.79668 26.2876 4.96935C26.2876 4.14203 25.6148 3.46931 24.7875 3.46931C24.3728 3.46931 24.0375 3.13331 24.0375 2.71934C24.0375 2.30537 24.3728 1.96936 24.7875 1.96936C26.4421 1.96936 27.7875 3.31489 27.7875 4.96935C27.7875 6.62382 26.442 7.96935 24.7875 7.96935Z" fill="#5D8BFF"/>
<path d="M13.5375 13.2199C13.4385 13.2199 13.338 13.2003 13.242 13.1583L7.99197 10.9083C7.71599 10.7905 7.53749 10.519 7.53749 10.2198V1.96977H3.03745C2.62269 1.96977 2.28748 1.63376 2.28748 1.21979C2.28739 0.804944 2.62261 0.469727 3.03736 0.469727H8.28738C8.70214 0.469727 9.03735 0.804944 9.03735 1.2197V9.72477L13.8329 11.7805C14.2131 11.9433 14.3901 12.3843 14.2266 12.7653C14.1052 13.0488 13.8284 13.2199 13.5375 13.2199Z" fill="#5D8BFF"/>
<path d="M29.2876 13.2199C28.9966 13.2199 28.7198 13.0488 28.5983 12.7654C28.4349 12.3844 28.6119 11.9433 28.9921 11.7806L33.7876 9.72486V1.2197C33.7876 0.804944 34.1228 0.469727 34.5376 0.469727H39.7876C40.2024 0.469727 40.5376 0.804944 40.5376 1.2197C40.5376 1.63367 40.2024 1.96968 39.7876 1.96968H35.2876V10.2198C35.2876 10.519 35.1091 10.7905 34.8331 10.9083L29.5831 13.1583C29.487 13.2003 29.3865 13.2199 29.2876 13.2199Z" fill="#5D8BFF"/>
<path d="M0.788042 25.2196C0.521028 25.2196 0.262276 25.0771 0.126572 24.8251C-0.0699531 24.4606 0.0673331 24.0053 0.431818 23.8096L10.1819 18.5596C10.5464 18.3623 11.0016 18.4995 11.1982 18.8641C11.3947 19.2286 11.2574 19.6839 10.8929 19.8796L1.14286 25.1296C1.02957 25.191 0.908102 25.2196 0.788042 25.2196Z" fill="#5D8BFF"/>
<path d="M6.78663 45.4698C6.6606 45.4698 6.53236 45.4383 6.41538 45.3708C6.05538 45.1653 5.93013 44.707 6.13641 44.3478L8.94595 39.4308L5.35488 31.5302C5.21461 31.2227 5.29784 30.8597 5.55659 30.6437L10.0566 26.8937C10.3761 26.6282 10.8479 26.6717 11.1141 26.9896C11.3789 27.3076 11.3354 27.7809 11.0182 28.0457L6.95688 31.4297L10.4699 39.1593C10.5697 39.379 10.5576 39.6326 10.4384 39.8417L7.43844 45.0917C7.30036 45.334 7.04767 45.4698 6.78663 45.4698Z" fill="#5D8BFF"/>
<path d="M41.2868 25.2196C41.1669 25.2196 41.0453 25.1911 40.9321 25.1296L31.1821 19.8795C30.8176 19.6837 30.6803 19.2284 30.8768 18.864C31.0733 18.4995 31.5285 18.3622 31.8931 18.5594L41.6432 23.8094C42.0076 24.0052 42.1449 24.4604 41.9484 24.8249C41.8126 25.077 41.5539 25.2196 41.2868 25.2196Z" fill="#5D8BFF"/>
<path d="M35.2884 45.4698C35.0273 45.4698 34.7747 45.334 34.6367 45.0917L31.6367 39.8417C31.5174 39.6325 31.5055 39.379 31.6052 39.1593L35.1182 31.4297L31.0569 28.0457C30.7397 27.7809 30.6961 27.3076 30.961 26.9896C31.2272 26.6717 31.699 26.6282 32.0185 26.8937L36.5185 30.6437C36.7773 30.8598 36.8605 31.2228 36.7202 31.5302L33.1292 39.4308L35.9387 44.3478C36.145 44.707 36.0197 45.1653 35.6597 45.3708C35.5426 45.4382 35.4143 45.4698 35.2884 45.4698Z" fill="#5D8BFF"/>
<path d="M21.0375 41.7197C14.4097 41.7197 9.03741 36.3466 9.03741 29.7196V16.2195H33.0376V29.7196C33.0375 36.3466 27.6653 41.7197 21.0375 41.7197Z" fill="#5D8BFF"/>
<path d="M30.0376 16.2195H12.0374V14.7194C12.0374 9.74918 16.0672 5.71936 21.0375 5.71936C26.0077 5.71936 30.0376 9.74918 30.0376 14.7194V16.2195Z" fill="#5D8BFF"/>
<path d="M9.03741 18.6449V20.3946L21.0277 27.5887L33.0375 20.7262V18.9988L21.0472 25.8501L9.03741 18.6449Z" fill="white"/>
<path d="M20.2875 41.6819C20.5365 41.6976 20.784 41.7194 21.0375 41.7194C21.291 41.7194 21.5385 41.6977 21.7875 41.6819V26.7192H20.2874L20.2875 41.6819Z" fill="white"/>
</g>
<defs>
<clipPath id="clip0_1_293">
<rect width="42.075" height="45" fill="white" transform="translate(0 0.469727)"/>
</clipPath>
</defs>
</svg>
