<svg width="45" height="46" viewBox="0 0 45 46" fill="none" xmlns="http://www.w3.org/2000/svg">
<g clip-path="url(#clip0_1_278)">
<path d="M44.7096 23.8453L40.9659 20.8503C40.8327 20.744 40.6687 20.6864 40.498 20.6864H35.2777C34.067 18.8797 32.8795 17.3006 31.8635 16.0277C30.0725 13.7837 27.7573 12.0803 25.1091 11.0171C25.169 10.9819 25.2267 10.9452 25.2843 10.9078C25.3599 10.9332 25.4392 10.9528 25.5224 10.9528C25.5449 10.9528 25.568 10.9512 25.5912 10.9497L31.0406 10.4541C32.9873 10.2767 34.8756 9.61031 36.5026 8.5261C38.0151 7.51825 39.2902 6.15109 40.1924 4.57277L41.8966 1.59054C42.1025 1.23113 41.9774 0.773679 41.6181 0.569219C41.2587 0.363333 40.8013 0.487596 40.5968 0.84772L38.8919 3.82987C38.105 5.20756 36.9908 6.40033 35.6723 7.28008C34.252 8.22646 32.604 8.80826 30.9043 8.96249L26.6971 9.3451C26.9038 8.9153 27.0206 8.44813 27.0206 7.95768C27.0206 7.92253 27.0153 7.88801 27.0138 7.85286C28.3054 7.52039 29.2668 6.35608 29.2668 4.96269C29.2668 3.31096 27.9235 1.9677 26.2718 1.9677C25.8577 1.9677 25.5231 2.3024 25.5231 2.7164C25.5231 3.12969 25.8578 3.4651 26.2718 3.4651C27.0977 3.4651 27.7693 4.13673 27.7693 4.9626C27.7693 5.66866 27.2759 6.25867 26.6169 6.41594C25.9102 5.11916 24.3452 4.2139 22.528 4.2139C20.7108 4.2139 19.146 5.11916 18.4391 6.41594C17.7802 6.25867 17.2868 5.66866 17.2868 4.9626C17.2868 4.13673 17.9584 3.4651 18.7843 3.4651C19.1984 3.4651 19.533 3.12969 19.533 2.7164C19.533 2.30231 19.1983 1.9677 18.7843 1.9677C17.1326 1.9677 15.7893 3.31096 15.7893 4.96269C15.7893 6.35608 16.7507 7.52039 18.0423 7.85286C18.0408 7.88801 18.0355 7.92253 18.0355 7.95768C18.0355 8.44813 18.1523 8.9153 18.359 9.3451L14.1511 8.96249C12.4521 8.80826 10.8042 8.22646 9.38382 7.28008C8.06527 6.40033 6.95118 5.20756 6.16349 3.82987L4.45948 0.84763C4.25431 0.487507 3.79606 0.363154 3.43817 0.56913C3.07876 0.7735 2.95369 1.23104 3.15967 1.59045L4.86385 4.57268C5.76608 6.151 7.04119 7.51825 8.55367 8.52601C10.1807 9.61022 12.069 10.2766 14.0157 10.454L19.465 10.9496C19.4882 10.9512 19.5114 10.9527 19.5339 10.9527C19.617 10.9527 19.6964 10.9332 19.772 10.9077C19.8296 10.9452 19.8881 10.9818 19.9479 11.017C17.2989 12.0809 14.9838 13.7843 13.1927 16.0276C12.1774 17.3005 10.9892 18.8796 9.77846 20.6863H4.55832C4.38758 20.6863 4.22362 20.7439 4.09035 20.8502L0.346566 23.8453C0.0238198 24.1036 -0.028544 24.5746 0.229796 24.8973C0.378056 25.0822 0.595182 25.1788 0.815342 25.1788C0.979302 25.1788 1.14406 25.125 1.28251 25.0141L4.82103 22.1838H8.80657C5.49409 27.4363 2.31195 34.2206 2.31195 40.9062C2.31266 41.0057 2.34638 43.3523 4.21078 44.6349C5.73593 45.6846 7.95751 45.6726 10.8469 44.5839C11.1734 44.4417 17.9861 41.449 21.7793 37.6753V11.6446C22.0234 11.679 22.2727 11.7015 22.528 11.7015C22.7833 11.7015 23.0326 11.679 23.2767 11.6446V37.6753C27.0698 41.449 33.8871 44.4432 34.2436 44.5982C35.6872 45.1418 36.969 45.4136 38.0801 45.4136C39.1673 45.4136 40.0913 45.1538 40.8452 44.635C42.7096 43.3524 42.7433 41.0058 42.7441 40.9025C42.7441 34.2192 39.5619 27.4357 36.2495 22.1839H40.235L43.7735 25.0142C43.912 25.125 44.0767 25.1789 44.2407 25.1789C44.4608 25.1789 44.678 25.0823 44.8262 24.8974C45.0847 24.5746 45.0324 24.1036 44.7096 23.8453ZM18.6856 22.5552L14.9015 29.1778L16.9537 30.5458C17.2981 30.7749 17.391 31.2399 17.1611 31.5835C17.0173 31.8 16.7792 31.9174 16.5374 31.9174C16.3951 31.9174 16.2506 31.8762 16.1226 31.7917L14.1564 30.4806L9.70068 38.2788C9.56294 38.5206 9.31058 38.6561 9.05001 38.6561C8.92423 38.6561 8.79622 38.6239 8.67936 38.5573C8.31995 38.3521 8.19488 37.8947 8.40086 37.536L9.70665 35.2508L7.8865 34.0379C7.54208 33.8088 7.44921 33.343 7.6791 32.9993C7.90818 32.6556 8.37169 32.5613 8.71763 32.7919L10.451 33.9472L15.6966 24.7684L13.8765 23.5555C13.5321 23.3264 13.4392 22.8607 13.6691 22.5169C13.8982 22.1732 14.3617 22.0789 14.7076 22.3095L16.441 23.4648L17.3859 21.8124C17.5903 21.453 18.0478 21.3279 18.4072 21.5339C18.7665 21.7384 18.8914 22.1958 18.6856 22.5552ZM36.3387 32.792C36.6831 32.5614 37.1473 32.6557 37.3772 32.9994C37.6071 33.3431 37.5142 33.8088 37.1698 34.0379L35.3496 35.2509L36.6554 37.5361C36.8613 37.8947 36.7362 38.3522 36.3769 38.5574C36.2602 38.624 36.1321 38.6562 36.0063 38.6562C35.7457 38.6562 35.4934 38.5207 35.3556 38.2789L30.8999 30.4807L28.9337 31.7917C28.8057 31.8763 28.6612 31.9175 28.5189 31.9175C28.277 31.9175 28.039 31.8 27.8952 31.5836C27.6653 31.2399 27.7581 30.775 28.1026 30.5459L30.1548 29.1779L26.3707 22.5553C26.1648 22.1959 26.2899 21.7384 26.6492 21.534C27.0071 21.3281 27.4654 21.4532 27.6705 21.8125L28.6155 23.4649L30.3488 22.3096C30.6933 22.079 31.1575 22.1733 31.3874 22.517C31.6173 22.8607 31.5244 23.3264 31.18 23.5556L29.3598 24.7685L34.6055 33.9473L36.3387 32.792Z" fill="#5D8BFF"/>
</g>
<defs>
<clipPath id="clip0_1_278">
<rect width="44.9438" height="45" fill="white" transform="translate(0.0562134 0.469727)"/>
</clipPath>
</defs>
</svg>
