<svg width="48" height="47" viewBox="0 0 48 47" fill="none" xmlns="http://www.w3.org/2000/svg">
<g clip-path="url(#clip0_1_263)">
<path d="M47.4116 33.3313L42.6571 26.1996C42.5636 26.0594 42.4273 25.9524 42.2689 25.8945L33.7813 22.8081C32.1806 20.5236 30.4357 18.392 29.0767 16.8191L34.2663 15.5219C34.4699 15.4712 34.6451 15.3412 34.7528 15.1613L37.13 11.1992C37.3559 10.8236 37.2338 10.3371 36.8591 10.112C36.4834 9.88614 35.9961 10.0074 35.7718 10.3829L33.5626 14.0637L28.3667 15.3633C28.4674 14.914 28.5268 14.4456 28.5268 13.9607C28.5268 13.337 28.4301 12.734 28.2637 12.1643C28.2732 12.1556 28.2851 12.1532 28.2947 12.1437L31.4643 8.97406C31.6132 8.82585 31.6964 8.62379 31.6964 8.41383V6.03658C31.6964 5.59921 31.3414 5.2442 30.9041 5.2442C30.4667 5.2442 30.1117 5.59921 30.1117 6.03658V8.08575L27.5689 10.6286C27.4286 10.4106 27.2709 10.2078 27.1021 10.0152C27.4912 9.59205 27.7345 9.03265 27.7345 8.41373C27.7345 7.39941 27.0927 6.53813 26.1965 6.19733C26.5071 3.87394 28.4968 2.07439 30.9042 2.07439C31.3416 2.07439 31.6966 1.71938 31.6966 1.28201C31.6966 0.844632 31.3416 0.489624 30.9042 0.489624C27.6775 0.489624 25.0118 2.91441 24.6196 6.03649H22.9254C22.5332 2.91441 19.8675 0.489624 16.6408 0.489624C16.2034 0.489624 15.8484 0.844632 15.8484 1.28201C15.8484 1.71938 16.2034 2.07439 16.6408 2.07439C19.0481 2.07439 21.0379 3.87394 21.3486 6.19733C20.4524 6.53803 19.8105 7.39941 19.8105 8.41373C19.8105 9.03265 20.0538 9.59205 20.4429 10.0152C20.2741 10.2078 20.1164 10.4106 19.9753 10.6286L17.4333 8.08575V6.03668C17.4333 5.5993 17.0783 5.24429 16.6409 5.24429C16.2035 5.24429 15.8485 5.5993 15.8485 6.03668V8.41392C15.8485 8.62388 15.9317 8.82594 16.0807 8.97415L19.2503 12.1438C19.2597 12.1532 19.2716 12.1557 19.2812 12.1644C19.1148 12.7341 19.0181 13.3371 19.0181 13.9608C19.0181 14.4457 19.0776 14.9141 19.1782 15.3634L13.9824 14.0638L11.7731 10.383C11.5481 10.0083 11.0615 9.88697 10.6859 10.1121C10.3111 10.3371 10.1891 10.8237 10.4149 11.1993L12.7922 15.1614C12.9 15.3413 13.075 15.4712 13.2788 15.522L18.469 16.82C17.114 18.3905 15.3731 20.5182 13.7748 22.8043L5.27618 25.8947C5.11766 25.9526 4.98144 26.0596 4.88793 26.1998L0.133441 33.3315C-0.10902 33.696 -0.0107726 34.1881 0.352964 34.4306C0.488448 34.521 0.64139 34.5638 0.791918 34.5638C1.04784 34.5638 1.29903 34.4402 1.45197 34.2112L6.06225 27.2958L12.3088 25.024C10.9578 27.2063 9.88088 29.41 9.51398 31.3078C9.51083 31.3363 9.48464 31.5955 9.50925 31.9877C9.59802 33.3934 10.2415 34.6803 11.3207 35.6122C12.316 36.472 13.6084 36.945 14.9246 36.945C15.0752 36.945 15.2265 36.9394 15.3771 36.9268C16.1236 36.865 16.79 36.7366 17.3851 36.5559C17.0808 37.3848 16.8946 38.1478 16.7899 38.7683C16.4468 40.8033 15.4784 42.6686 14.0014 44.1504C13.9444 44.2035 13.6939 44.4182 13.4546 44.6234C13.194 44.8477 12.9451 45.064 12.9142 45.0933C12.6076 45.3968 12.6036 45.8865 12.9015 46.1995C13.056 46.362 13.2644 46.4436 13.4736 46.4436C13.6678 46.4436 13.8618 46.3738 14.0148 46.2344C14.0639 46.1884 14.2715 46.0109 14.4871 45.8255C14.7771 45.5766 15.079 45.3144 15.1107 45.2819C16.8342 43.5528 17.9547 41.3919 18.3525 39.0322C18.5324 37.9687 18.9619 36.4425 19.9801 34.8982C20.6829 36.9814 21.7535 38.9252 23.164 40.6178C23.3145 40.7986 23.5372 40.9031 23.7726 40.9031C24.0079 40.9031 24.2306 40.7986 24.3812 40.6178C25.7917 38.9253 26.8623 36.9815 27.5651 34.8982C28.5834 36.4425 29.0129 37.9688 29.1928 39.0314C29.5906 41.392 30.7111 43.5529 32.4322 45.2796C32.4663 45.3144 32.7682 45.5767 33.0582 45.8255C33.2705 46.0078 33.475 46.1837 33.528 46.232C33.681 46.3771 33.8775 46.45 34.074 46.45C34.2784 46.45 34.4828 46.3715 34.6382 46.2147C34.9456 45.9032 34.9425 45.4008 34.631 45.0934C34.6001 45.064 34.3513 44.8478 34.0906 44.6235C33.8513 44.4183 33.6008 44.2035 33.5573 44.1631C32.0668 42.6686 31.0984 40.8033 30.7553 38.7683C30.6507 38.1471 30.4645 37.3848 30.1594 36.5559C30.7553 36.7366 31.4218 36.865 32.1682 36.9268C32.3187 36.9395 32.4701 36.945 32.6206 36.945C33.9368 36.945 35.2292 36.4711 36.2245 35.6122C37.3038 34.6803 37.9472 33.3934 38.036 31.9869C38.0606 31.5962 38.0344 31.3379 38.0209 31.2436C37.6588 29.3727 36.5914 27.1928 35.2506 25.0295L41.483 27.2958L46.0932 34.2112C46.2454 34.4402 46.4974 34.5638 46.7533 34.5638C46.9038 34.5638 47.0568 34.521 47.1923 34.4306C47.5566 34.188 47.6549 33.6959 47.4116 33.3313ZM22.5037 19.3009C22.9086 19.4324 23.3325 19.5077 23.7723 19.5077C24.2121 19.5077 24.636 19.4323 25.041 19.3009C25.0791 20.1257 25.1456 20.9974 25.2312 21.8849H22.3135C22.3991 20.9974 22.4656 20.1257 22.5037 19.3009ZM22.1431 23.4698L25.4007 23.4682C25.4949 24.2685 25.6003 25.0681 25.7113 25.847H21.8332C21.9443 25.0688 22.0496 24.2701 22.1431 23.4698ZM21.5972 27.4319H25.9475C26.0798 28.2845 26.2137 29.0856 26.3389 29.8091H21.2057C21.3309 29.0856 21.4648 28.2844 21.5972 27.4319ZM23.7723 38.8252C22.9847 37.753 22.3373 36.5858 21.8349 35.356H25.7098C25.2074 36.5858 24.56 37.753 23.7723 38.8252ZM26.2597 33.7933C26.2225 33.7877 26.1884 33.7711 26.1496 33.7711H21.3951C21.3563 33.7711 21.3222 33.7877 21.285 33.7933C21.0972 33.1586 20.9458 32.5104 20.8364 31.8527C20.8634 31.7093 20.8919 31.5555 20.9221 31.3939H26.6227C26.6528 31.5555 26.6813 31.7092 26.7083 31.8527C26.5988 32.5104 26.4475 33.1586 26.2597 33.7933Z" fill="#5D8BFF"/>
</g>
<defs>
<clipPath id="clip0_1_263">
<rect width="47.5452" height="46" fill="white" transform="translate(0 0.469727)"/>
</clipPath>
</defs>
</svg>
